<?xml version="1.0" encoding="utf-8"?>
<!-- Generator: Adobe Illustrator 18.0.0, SVG Export Plug-In . SVG Version: 6.00 Build 0)  -->
<!DOCTYPE svg PUBLIC "-//W3C//DTD SVG 1.0//EN" "http://www.w3.org/TR/2001/REC-SVG-20010904/DTD/svg10.dtd">
<svg version="1.0" xmlns="http://www.w3.org/2000/svg" xmlns:xlink="http://www.w3.org/1999/xlink" x="0px" y="0px"
	 viewBox="0 0 400 100" enable-background="new 0 0 400 100" xml:space="preserve">
<g id="Logo_x2B_Typo">
	<g>
		<g>
			<path fill="#00A2E5" d="M49.1,35.6l-0.8-0.4V11.4h3.8c0.5,0,1-0.4,1.1-0.8c0-0.3-0.1-0.5-0.2-0.7c-0.2-0.2-0.4-0.3-0.7-0.3h-4.9
				c-0.5,0-1,0.4-1,1l0,25.3c0,0.4,0.2,0.7,0.6,0.9c10.9,4.6,18.3,15.2,18.8,27c0.1,2.1,0,4.3-0.4,6.4
				c-2.3,13.8-13.7,24.3-27.7,25.5c-0.9,0.1-1.9,0.1-2.8,0.1c-8.2,0-16-3.2-21.9-9C7.1,80.9,3.9,73.2,3.9,65c0-3.6,0.6-7.2,1.9-10.7
				c2.9-7.9,9.1-14.3,16.9-17.6c0.3-0.1,0.6-0.5,0.6-0.9l0-25.3c0-0.5-0.4-1-1-1h-4.8c-0.5,0-1,0.4-1.1,0.8c0,0.3,0.1,0.5,0.2,0.7
				c0.2,0.2,0.4,0.3,0.7,0.3h4v23.8l-0.8,0.4C8,41.6,0.6,54.9,2.2,68.8C4.1,85.1,18,97.5,34.5,97.6l0.3,0l0,0.5v-0.5
				c8.8,0,17-3.4,23.2-9.6c6.2-6.2,9.6-14.4,9.6-23.1C67.6,52.4,60.5,41.1,49.1,35.6z"/>
		</g>
		<g>
			<path fill="#00A2E5" d="M64.1,63.8c-14.2-14.2-16.5-3.7-31.5-3.7c1.1,0.9,2.1,1.9,3.3,3C50.4,77.6,61.6,66.5,64.1,63.8z"/>
			<path fill="#D20F8C" d="M64.1,63.8c-2.6,2.7-13.8,13.8-28.2-0.7c-1.1-1.1-2.2-2.1-3.3-3c0,0,0,0-0.1,0c0,0,0,0,0.1,0
				c-13.2-11.2-22.5-7-25.3-5.2c-1.2,3.2-1.8,6.6-1.8,10.2c0,17,14.6,30.7,32,29.2C50.7,93.1,61.6,83,63.8,69.9
				C64.1,67.9,64.2,65.8,64.1,63.8z"/>
		</g>
		<g>
			<circle fill="#00A2E5" cx="40.6" cy="23.1" r="3.3"/>
			<circle fill="#FFFFFF" cx="41.9" cy="21.7" r="0.8"/>
		</g>
		<g>
			<circle fill="#00A2E5" cx="26.8" cy="44.5" r="4.4"/>
			<circle fill="#FFFFFF" cx="28.5" cy="42.6" r="1.1"/>
		</g>
		<g>
			<circle fill="#D20F8C" cx="36.1" cy="8.8" r="4"/>
			<circle fill="#FFFFFF" cx="37.7" cy="7.1" r="1"/>
		</g>
		<g>
			<circle fill="#00A2E5" cx="29.8" cy="17.9" r="2.2"/>
			<circle fill="#FFFFFF" cx="30.7" cy="17" r="0.5"/>
		</g>
		<g>
			<circle fill="#00A2E5" cx="27.1" cy="2.9" r="1.1"/>
			<circle fill="#FFFFFF" cx="27.5" cy="2.5" r="0.3"/>
		</g>
		<g>
			<circle fill="#D20F8C" cx="39.3" cy="41.1" r="2.4"/>
			<circle fill="#FFFFFF" cx="40.3" cy="40.1" r="0.6"/>
		</g>
		<g>
			<circle fill="#D20F8C" cx="34.1" cy="33.1" r="1.6"/>
			<circle fill="#FFFFFF" cx="34.7" cy="32.4" r="0.4"/>
		</g>
		<g>
			<g>
				<circle fill="#D20F8C" cx="50.3" cy="54.6" r="6.7"/>
				<path fill="#FFFFFF" d="M50.3,61.9c-4.1,0-7.4-3.3-7.4-7.4s3.3-7.4,7.4-7.4s7.4,3.3,7.4,7.4S54.4,61.9,50.3,61.9z M50.3,48.5
					c-3.4,0-6.1,2.7-6.1,6.1c0,3.4,2.7,6.1,6.1,6.1c3.4,0,6.1-2.7,6.1-6.1C56.4,51.2,53.7,48.5,50.3,48.5z"/>
			</g>
			<circle fill="#FFFFFF" cx="53" cy="51.7" r="1.6"/>
		</g>
	</g>
	<g>
		<path fill="#D20F8C" d="M88.8,48.6h6.5c0.5,0,0.9,0.2,1.3,0.5c0.4,0.3,0.5,0.7,0.5,1.1S97,51,96.6,51.3c-0.4,0.3-0.8,0.5-1.3,0.5
			h-6.7c-0.9,0-1.7-0.2-2.7-0.7c-0.9-0.5-1.6-1-1.9-1.6l-4.2-7.1c-0.6-1-0.8-2.1-0.8-3.2c0-1.2,0.3-2.2,0.8-3.1L84,29
			c0.4-0.7,1-1.2,1.9-1.7c0.8-0.5,1.7-0.8,2.4-0.8h7.1c0.5,0,0.9,0.2,1.3,0.5c0.4,0.3,0.5,0.7,0.5,1.1c0,0.4-0.2,0.8-0.5,1.2
			c-0.4,0.3-0.8,0.5-1.3,0.5h-6.9c-0.6,0-1,0.3-1.4,0.9l-4,6.6c-0.3,0.5-0.5,1.1-0.5,1.8c0,0.8,0.2,1.4,0.5,2l3.8,6.5
			C87.4,48.3,88,48.6,88.8,48.6z"/>
		<path fill="#00A2E5" d="M123.7,39.2V46c0,1.4-0.8,2.8-2.3,4c-1.5,1.2-3.1,1.8-4.7,1.8h-4.2c-1.6,0-3.2-0.6-4.7-1.9
			c-1.5-1.2-2.3-2.6-2.3-4v-6.8c0-1.4,0.7-2.7,2.2-4c1.5-1.2,3.1-1.9,4.8-1.9h4.2c1.6,0,3.2,0.6,4.7,1.8S123.7,37.7,123.7,39.2z
			 M109.1,39.3v6.5c0,0.6,0.2,1,0.7,1.4l1.4,1c0.3,0.2,0.7,0.3,1.3,0.3h4.2c0.6,0,1.2-0.2,1.7-0.6l1.1-0.9c0.4-0.3,0.7-0.7,0.7-1.3
			v-6.5c0-0.6-0.2-1.1-0.7-1.4l-1.3-0.9c-0.4-0.3-0.9-0.5-1.5-0.5h-3.7c-0.8,0-1.4,0.2-1.9,0.5l-1.2,0.9
			C109.3,38.4,109.1,38.8,109.1,39.3z"/>
		<path fill="#00A2E5" d="M146.6,35.7v-7.6c0-0.4,0.2-0.8,0.5-1.1c0.3-0.3,0.8-0.5,1.2-0.5c0.5,0,0.9,0.2,1.3,0.5
			c0.4,0.3,0.5,0.7,0.5,1.1v22.1c0,0.4-0.2,0.8-0.5,1.1c-0.4,0.3-0.8,0.5-1.3,0.5c-0.5,0-0.9-0.2-1.3-0.5c-0.3-0.3-0.5-0.7-0.5-1.1
			v-0.7c-1.8,1.5-3.4,2.3-4.9,2.3h-3.1c-1.2,0-2.5-0.5-3.7-1.4l-1.5-1.1c-0.3-0.3-0.7-0.8-1-1.5s-0.5-1.3-0.5-1.9v-6.5
			c0-0.7,0.2-1.4,0.5-2.1s0.7-1.2,1.2-1.5l1.5-1.1c1.1-0.8,2.3-1.2,3.7-1.2h2.6c1.4,0,2.7,0.4,3.9,1.3L146.6,35.7z M141.3,36.6h-2.5
			c-0.5,0-1,0.2-1.4,0.5l-1.2,0.9c-0.4,0.3-0.6,0.7-0.6,1.2V46c0,0.4,0.2,0.8,0.7,1.2l1.2,0.9c0.4,0.3,0.8,0.4,1.2,0.4h2.9
			c0.4,0,0.8-0.2,1.4-0.6l2.9-2.1c0.5-0.4,0.7-0.8,0.7-1.4V41c0-0.8-0.3-1.3-0.8-1.7l-2.9-2.2C142.5,36.8,142,36.6,141.3,36.6z"/>
		<path fill="#00A2E5" d="M176.8,39.4v3.9c0,0.4-0.2,0.8-0.5,1.1c-0.4,0.3-0.8,0.5-1.3,0.5h-12.8v0.9c0,0.5,0.3,1,0.8,1.4l1.1,0.8
			c0.6,0.4,1.1,0.6,1.6,0.6h9.3c0.5,0,0.9,0.2,1.3,0.5c0.4,0.3,0.5,0.7,0.5,1.1c0,0.4-0.2,0.8-0.5,1.1s-0.8,0.5-1.3,0.5h-9.5
			c-0.6,0-1.3-0.1-2-0.4s-1.2-0.5-1.5-0.7l-1.6-1.3c-0.5-0.4-0.9-0.9-1.3-1.5c-0.3-0.6-0.5-1.2-0.5-1.8v-7.3c0-0.4,0.2-1,0.5-1.7
			s0.8-1.3,1.4-1.7l1.5-1c1-0.7,2.1-1.1,3.3-1.1h5.1c1.3,0,2.5,0.5,3.6,1.4l1.4,1.1C176.3,36.7,176.8,37.9,176.8,39.4z M162.3,39.2
			v2.5h11v-2.2c0-0.6-0.2-1.1-0.6-1.4l-1.1-0.8c-0.5-0.4-1-0.6-1.5-0.6h-4.5c-0.6,0-1.1,0.2-1.5,0.5L163,38
			C162.5,38.3,162.3,38.7,162.3,39.2z"/>
		<path fill="#D20F8C" d="M195.1,48.6h6.5c0.5,0,0.9,0.2,1.3,0.5c0.4,0.3,0.5,0.7,0.5,1.1s-0.2,0.8-0.5,1.1
			c-0.4,0.3-0.8,0.5-1.3,0.5h-6.7c-0.9,0-1.7-0.2-2.7-0.7c-0.9-0.5-1.6-1-1.9-1.6l-4.2-7.1c-0.6-1-0.8-2.1-0.8-3.2
			c0-1.2,0.3-2.2,0.8-3.1l4.2-7.1c0.4-0.7,1-1.2,1.9-1.7c0.8-0.5,1.7-0.8,2.4-0.8h7.1c0.5,0,0.9,0.2,1.3,0.5
			c0.4,0.3,0.5,0.7,0.5,1.1c0,0.4-0.2,0.8-0.5,1.2c-0.4,0.3-0.8,0.5-1.3,0.5h-6.9c-0.6,0-1,0.3-1.4,0.9l-4,6.6
			c-0.3,0.5-0.5,1.1-0.5,1.8c0,0.8,0.2,1.4,0.5,2l3.8,6.5C193.7,48.3,194.2,48.6,195.1,48.6z"/>
		<path fill="#00A2E5" d="M211.7,50.2V35c0-0.4,0.2-0.8,0.5-1.2c0.4-0.3,0.8-0.5,1.3-0.5s0.9,0.2,1.3,0.5s0.5,0.7,0.5,1.2v2l2.9-2.2
			c1.2-0.9,2.4-1.4,3.6-1.4h2.6c1.5,0,2.8,0.5,3.8,1.4c1.1,0.9,1.6,2.1,1.6,3.4v0.9c0,0.5-0.2,0.8-0.5,1.2s-0.8,0.5-1.3,0.5
			c-0.5,0-0.9-0.2-1.3-0.5c-0.4-0.3-0.5-0.7-0.5-1.1v-0.9c0-0.4-0.2-0.8-0.5-1.1c-0.4-0.3-0.8-0.5-1.3-0.5h-2.3
			c-0.5,0-1.1,0.2-1.7,0.7l-5.1,3.9v8.9c0,0.4-0.2,0.8-0.5,1.1c-0.4,0.3-0.8,0.5-1.3,0.5c-0.5,0-0.9-0.2-1.3-0.5
			C211.9,51,211.7,50.6,211.7,50.2z"/>
		<path fill="#00A2E5" d="M243.7,40.3h7.1c0.4,0,0.9,0.1,1.7,0.2l0-2.3c0-0.4-0.2-0.8-0.5-1.1c-0.4-0.3-0.8-0.5-1.3-0.5h-6.9
			c-0.5,0-0.9-0.2-1.3-0.5c-0.4-0.3-0.5-0.7-0.5-1.1c0-0.4,0.2-0.8,0.5-1.1c0.4-0.3,0.8-0.5,1.3-0.5h6.9c1.5,0,2.8,0.5,3.8,1.4
			s1.6,2.1,1.6,3.4l0.5,12c0,0.4-0.2,0.8-0.5,1.1c-0.4,0.3-0.8,0.5-1.3,0.5c-0.5,0-1-0.2-1.3-0.5c-0.4-0.3-0.5-0.7-0.5-1.1l-3.1,1.6
			h-6.1c-1.5,0-2.8-0.5-3.9-1.4c-1.1-0.9-1.6-2.1-1.6-3.4v-1.9c0-1.3,0.5-2.5,1.6-3.4C240.9,40.7,242.2,40.3,243.7,40.3z
			 M252.7,46.5l-0.1-1.4c0-0.5-0.2-0.8-0.5-1.1s-0.8-0.5-1.3-0.5h-7.1c-0.5,0-0.9,0.2-1.3,0.5s-0.5,0.7-0.5,1.1v1.8
			c0,0.4,0.2,0.8,0.5,1.1s0.8,0.5,1.3,0.5h5.1L252.7,46.5z"/>
		<path fill="#00A2E5" d="M273.1,36.6v13.6c0,0.4-0.2,0.8-0.5,1.1c-0.4,0.3-0.8,0.5-1.3,0.5c-0.5,0-1-0.2-1.3-0.5
			c-0.4-0.3-0.5-0.7-0.5-1.1V36.6h-1.8c-0.5,0-0.9-0.2-1.3-0.5s-0.5-0.7-0.5-1.1c0-0.4,0.2-0.8,0.5-1.1c0.3-0.3,0.8-0.5,1.3-0.5h1.9
			v-1.2c0-1.6,0.6-3,1.9-4.1s2.8-1.6,4.7-1.6h4.2c0.5,0,0.9,0.2,1.3,0.5s0.5,0.7,0.5,1.2c0,0.4-0.2,0.8-0.5,1.1
			c-0.4,0.3-0.8,0.5-1.3,0.5h-4.2c-0.9,0-1.6,0.2-2.1,0.7s-0.8,1-0.8,1.8v1.2h3.6c0.5,0,0.9,0.1,1.3,0.5c0.4,0.3,0.5,0.7,0.5,1.1
			c0,0.4-0.2,0.8-0.5,1.1c-0.4,0.3-0.8,0.5-1.3,0.5H273.1z"/>
		<path fill="#00A2E5" d="M304.1,51.8h-3.6c-1.5,0-2.8-0.5-3.8-1.4c-1.1-0.9-1.6-2.1-1.6-3.4V36.6h-1.8c-0.5,0-0.9-0.2-1.3-0.5
			s-0.5-0.7-0.5-1.1c0-0.4,0.2-0.8,0.5-1.1c0.4-0.3,0.8-0.5,1.3-0.5h1.9v-3.9c0-0.4,0.2-0.8,0.5-1.1c0.3-0.3,0.8-0.5,1.3-0.5
			c0.5,0,0.9,0.2,1.3,0.5s0.5,0.7,0.5,1.1v3.9h7.3c0.5,0,0.9,0.2,1.3,0.5s0.5,0.7,0.5,1.1c0,0.4-0.2,0.8-0.5,1.1s-0.8,0.5-1.3,0.5
			h-7.3V47c0,0.4,0.2,0.8,0.5,1.1s0.8,0.5,1.3,0.5h3.5c1,0,1.6-0.5,1.9-1.4c0.3-0.9,0.9-1.4,1.8-1.4c0.5,0,1,0.2,1.3,0.5
			c0.3,0.3,0.5,0.7,0.5,1.2c0,1-0.5,1.9-1.5,2.9C307,51.3,305.7,51.8,304.1,51.8z"/>
		<path fill="#00A2E5" d="M336.1,39.4v3.9c0,0.4-0.2,0.8-0.5,1.1c-0.4,0.3-0.8,0.5-1.3,0.5h-12.8v0.9c0,0.5,0.3,1,0.8,1.4l1.1,0.8
			c0.6,0.4,1.1,0.6,1.6,0.6h9.3c0.5,0,0.9,0.2,1.3,0.5c0.4,0.3,0.5,0.7,0.5,1.1c0,0.4-0.2,0.8-0.5,1.1s-0.8,0.5-1.3,0.5h-9.5
			c-0.6,0-1.3-0.1-2-0.4s-1.2-0.5-1.5-0.7l-1.6-1.3c-0.5-0.4-0.9-0.9-1.3-1.5c-0.3-0.6-0.5-1.2-0.5-1.8v-7.3c0-0.4,0.2-1,0.5-1.7
			s0.8-1.3,1.4-1.7l1.5-1c1-0.7,2.1-1.1,3.3-1.1h5.1c1.3,0,2.5,0.5,3.6,1.4l1.4,1.1C335.6,36.7,336.1,37.9,336.1,39.4z M321.6,39.2
			v2.5h11v-2.2c0-0.6-0.2-1.1-0.6-1.4l-1.1-0.8c-0.5-0.4-1-0.6-1.5-0.6h-4.5c-0.6,0-1.1,0.2-1.5,0.5l-1.1,0.8
			C321.9,38.3,321.6,38.7,321.6,39.2z"/>
		<path fill="#00A2E5" d="M344.5,50.2V35c0-0.4,0.2-0.8,0.5-1.2c0.4-0.3,0.8-0.5,1.3-0.5s0.9,0.2,1.3,0.5s0.5,0.7,0.5,1.2v2l2.9-2.2
			c1.2-0.9,2.4-1.4,3.6-1.4h2.6c1.5,0,2.8,0.5,3.8,1.4c1.1,0.9,1.6,2.1,1.6,3.4v0.9c0,0.5-0.2,0.8-0.5,1.2s-0.8,0.5-1.3,0.5
			c-0.5,0-0.9-0.2-1.3-0.5c-0.4-0.3-0.5-0.7-0.5-1.1v-0.9c0-0.4-0.2-0.8-0.5-1.1c-0.4-0.3-0.8-0.5-1.3-0.5h-2.3
			c-0.5,0-1.1,0.2-1.7,0.7l-5.1,3.9v8.9c0,0.4-0.2,0.8-0.5,1.1c-0.4,0.3-0.8,0.5-1.3,0.5c-0.5,0-0.9-0.2-1.3-0.5
			C344.7,51,344.5,50.6,344.5,50.2z"/>
		<path fill="#00A2E5" d="M376.1,33.4h8.3c1.3,0,2.4,0.3,3.4,1c1,0.7,1.5,1.3,1.5,2c0,0.5-0.2,0.8-0.5,1.1S388,38,387.5,38
			c-0.6,0-1.1-0.2-1.6-0.7c-0.5-0.5-1-0.7-1.5-0.7h-8.2c-0.8,0-1.2,0.3-1.2,0.9c0,0.4,0.3,0.7,0.8,0.9l9.6,3.8c1,0.4,1.8,1,2.4,1.8
			c0.6,0.8,0.9,1.8,0.9,2.8c0,1.4-0.5,2.5-1.6,3.5s-2.3,1.4-3.7,1.4h-7.3c-1.3,0-2.4-0.3-3.5-1s-1.6-1.3-1.6-2
			c0-0.4,0.2-0.8,0.5-1.1c0.4-0.3,0.8-0.5,1.4-0.5c0.5,0,0.9,0.2,1.5,0.7s1.3,0.7,2.3,0.7h6.7c0.5,0,1-0.2,1.3-0.5
			c0.4-0.4,0.5-0.8,0.5-1.2c0-0.7-0.4-1.2-1.2-1.6l-9.7-3.9c-0.9-0.4-1.6-0.9-2.1-1.6s-0.8-1.4-0.8-2.1c0-1.1,0.4-2.1,1.3-3
			S374.8,33.4,376.1,33.4z"/>
	</g>
	<g>
		<path fill="#00A2E5" d="M91.7,71.4v2.1c0,0.2-0.1,0.4-0.3,0.6c-0.2,0.2-0.4,0.3-0.7,0.3s-0.5-0.1-0.7-0.3
			c-0.2-0.2-0.3-0.4-0.3-0.6v-2.1h-1.1c-0.3,0-0.5-0.1-0.7-0.3c-0.2-0.2-0.3-0.4-0.3-0.6c0-0.2,0.1-0.4,0.3-0.6s0.4-0.3,0.7-0.3h1
			v-2h-1c-0.3,0-0.5-0.1-0.7-0.3c-0.2-0.2-0.3-0.4-0.3-0.6c0-0.2,0.1-0.5,0.3-0.6s0.4-0.2,0.7-0.2h1.1v-2.1c0-0.2,0.1-0.4,0.3-0.6
			c0.2-0.2,0.4-0.3,0.7-0.3c0.3,0,0.5,0.1,0.7,0.3s0.3,0.4,0.3,0.6V66h2.1v-2.1c0-0.2,0.1-0.4,0.3-0.6c0.2-0.2,0.4-0.3,0.7-0.3
			c0.3,0,0.5,0.1,0.7,0.3c0.2,0.2,0.3,0.4,0.3,0.6V66H97c0.3,0,0.5,0.1,0.7,0.3c0.2,0.2,0.3,0.4,0.3,0.6c0,0.2-0.1,0.5-0.3,0.6
			c-0.2,0.2-0.5,0.3-0.7,0.3h-1v1.9h1c0.3,0,0.5,0.1,0.7,0.3c0.2,0.2,0.3,0.4,0.3,0.6c0,0.2-0.1,0.4-0.3,0.6
			c-0.2,0.2-0.4,0.3-0.7,0.3h-1.1v2.1c0,0.2-0.1,0.4-0.3,0.6c-0.2,0.2-0.5,0.3-0.7,0.3c-0.3,0-0.5-0.1-0.7-0.3
			c-0.2-0.2-0.3-0.4-0.3-0.6v-2.1H91.7z M91.7,67.7v1.9h2.1v-1.9H91.7z"/>
		<path fill="#D20F8C" d="M102.8,75.8V63.9c0-0.2,0.1-0.4,0.3-0.6s0.4-0.2,0.7-0.2c0.3,0,0.5,0.1,0.7,0.3c0.2,0.2,0.3,0.4,0.3,0.6
			v4.3l1.7-0.9c0.8-0.4,1.4-0.6,2-0.6h1.3c0.8,0,1.6,0.3,2.2,0.8c0.6,0.5,0.9,1.1,1,1.8l0.3,6.4c0,0.2-0.1,0.4-0.3,0.6
			c-0.2,0.2-0.5,0.3-0.7,0.3c-0.3,0-0.5-0.1-0.7-0.3c-0.2-0.2-0.3-0.4-0.3-0.6l-0.3-6.5c0-0.2-0.1-0.4-0.3-0.6
			c-0.2-0.2-0.5-0.3-0.7-0.3h-1.2c-0.3,0-0.6,0.1-0.9,0.3l-3,1.6v5.5c0,0.2-0.1,0.4-0.3,0.6c-0.2,0.2-0.4,0.3-0.7,0.3
			c-0.3,0-0.5-0.1-0.7-0.3C102.9,76.2,102.8,76,102.8,75.8z"/>
		<path fill="#D20F8C" d="M121.3,70.4h4.1c0.2,0,0.5,0,1,0.1l0-1.2c0-0.2-0.1-0.4-0.3-0.6c-0.2-0.2-0.4-0.3-0.7-0.3h-4
			c-0.3,0-0.5-0.1-0.7-0.3c-0.2-0.2-0.3-0.4-0.3-0.6c0-0.2,0.1-0.4,0.3-0.6c0.2-0.2,0.4-0.3,0.7-0.3h4c0.9,0,1.6,0.2,2.2,0.7
			s0.9,1.1,0.9,1.8l0.3,6.4c0,0.2-0.1,0.4-0.3,0.6c-0.2,0.2-0.5,0.3-0.7,0.3c-0.3,0-0.5-0.1-0.8-0.3c-0.2-0.2-0.3-0.4-0.3-0.6
			l-1.8,0.9h-3.5c-0.9,0-1.6-0.3-2.2-0.8s-0.9-1.1-0.9-1.8v-1c0-0.7,0.3-1.3,0.9-1.8C119.7,70.7,120.4,70.4,121.3,70.4z M126.5,73.8
			l-0.1-0.7c0-0.2-0.1-0.5-0.3-0.6s-0.4-0.2-0.7-0.2h-4.1c-0.3,0-0.5,0.1-0.7,0.3c-0.2,0.2-0.3,0.4-0.3,0.6v1c0,0.2,0.1,0.4,0.3,0.6
			c0.2,0.2,0.5,0.3,0.7,0.3h2.9L126.5,73.8z"/>
		<path fill="#D20F8C" d="M138.4,68.7l-2.8,1.5v5.5c0,0.2-0.1,0.4-0.3,0.6c-0.2,0.2-0.5,0.3-0.7,0.3s-0.5-0.1-0.7-0.3
			s-0.3-0.4-0.3-0.6v-8.2c0-0.2,0.1-0.4,0.3-0.6c0.2-0.2,0.4-0.3,0.7-0.3c0.3,0,0.5,0.1,0.7,0.3c0.2,0.2,0.3,0.4,0.3,0.6v0.6l1.9-1
			c0.6-0.3,1.4-0.5,2.2-0.5h1c0.8,0,1.5,0.2,2.1,0.7c0.6,0.5,0.9,1.1,1,1.8l0.3,6.5c0,0.2-0.1,0.4-0.3,0.6s-0.5,0.3-0.7,0.3
			c-0.3,0-0.5-0.1-0.7-0.2c-0.2-0.2-0.3-0.4-0.3-0.6l-0.3-6.4c0-0.6-0.4-0.9-1.1-0.9h-1C139.1,68.5,138.8,68.6,138.4,68.7z"/>
		<path fill="#D20F8C" d="M157.2,67.9v-4.1c0-0.2,0.1-0.4,0.3-0.6c0.2-0.2,0.4-0.3,0.7-0.3c0.3,0,0.5,0.1,0.7,0.3
			c0.2,0.2,0.3,0.4,0.3,0.6v11.9c0,0.2-0.1,0.4-0.3,0.6c-0.2,0.2-0.4,0.3-0.7,0.3c-0.3,0-0.5-0.1-0.7-0.3c-0.2-0.2-0.3-0.4-0.3-0.6
			v-0.4c-1,0.8-2,1.2-2.8,1.2h-1.8c-0.7,0-1.4-0.3-2.1-0.8l-0.9-0.6c-0.2-0.2-0.4-0.4-0.6-0.8c-0.2-0.4-0.3-0.7-0.3-1v-3.5
			c0-0.4,0.1-0.8,0.3-1.1c0.2-0.4,0.4-0.6,0.7-0.8l0.9-0.6c0.6-0.4,1.3-0.7,2.2-0.7h1.5c0.8,0,1.6,0.2,2.2,0.7L157.2,67.9z
			 M154.1,68.5h-1.4c-0.3,0-0.6,0.1-0.8,0.3l-0.7,0.5c-0.2,0.2-0.3,0.4-0.3,0.7v3.7c0,0.2,0.1,0.5,0.4,0.6l0.7,0.5
			c0.2,0.2,0.4,0.2,0.7,0.2h1.7c0.2,0,0.5-0.1,0.8-0.3l1.6-1.1c0.3-0.2,0.4-0.4,0.4-0.7v-1.9c0-0.4-0.1-0.7-0.4-0.9l-1.7-1.2
			C154.8,68.6,154.5,68.5,154.1,68.5z"/>
		<path fill="#D20F8C" d="M163.8,75.8v-8.2c0-0.2,0.1-0.4,0.3-0.6c0.2-0.2,0.4-0.3,0.7-0.3c0.5,0,0.9,0.2,1,0.7
			c0.6-0.5,1.2-0.7,1.9-0.7c0.8,0,1.5,0.3,2.1,0.9c0.7-0.6,1.4-0.9,2.2-0.9c0.6,0,1.2,0.2,1.7,0.6c0.5,0.4,0.7,0.9,0.8,1.5l0.3,7
			c0,0.2-0.1,0.4-0.3,0.6s-0.4,0.3-0.7,0.3c-0.3,0-0.5-0.1-0.7-0.3s-0.3-0.4-0.3-0.6l-0.2-6.8c0-0.4-0.2-0.6-0.4-0.6
			c-0.1,0-0.3,0.1-0.4,0.2l-1.2,0.9v6.3c0,0.2-0.1,0.4-0.3,0.6s-0.4,0.2-0.7,0.2c-0.3,0-0.5-0.1-0.7-0.3c-0.2-0.2-0.3-0.4-0.3-0.6
			v-6.8c0-0.3-0.2-0.4-0.5-0.4c-0.1,0-0.3,0-0.4,0.1l-1.5,1v6.1c0,0.2-0.1,0.4-0.3,0.6s-0.4,0.3-0.7,0.3c-0.3,0-0.5-0.1-0.7-0.3
			C164,76.2,163.8,76,163.8,75.8z"/>
		<path fill="#D20F8C" d="M182.5,70.4h4.1c0.2,0,0.5,0,1,0.1l0-1.2c0-0.2-0.1-0.4-0.3-0.6c-0.2-0.2-0.4-0.3-0.7-0.3h-4
			c-0.3,0-0.5-0.1-0.7-0.3c-0.2-0.2-0.3-0.4-0.3-0.6c0-0.2,0.1-0.4,0.3-0.6c0.2-0.2,0.4-0.3,0.7-0.3h4c0.9,0,1.6,0.2,2.2,0.7
			s0.9,1.1,0.9,1.8l0.3,6.4c0,0.2-0.1,0.4-0.3,0.6c-0.2,0.2-0.5,0.3-0.7,0.3c-0.3,0-0.5-0.1-0.8-0.3c-0.2-0.2-0.3-0.4-0.3-0.6
			l-1.8,0.9h-3.5c-0.9,0-1.6-0.3-2.2-0.8s-0.9-1.1-0.9-1.8v-1c0-0.7,0.3-1.3,0.9-1.8C180.9,70.7,181.6,70.4,182.5,70.4z M187.7,73.8
			l-0.1-0.7c0-0.2-0.1-0.5-0.3-0.6s-0.4-0.2-0.7-0.2h-4.1c-0.3,0-0.5,0.1-0.7,0.3c-0.2,0.2-0.3,0.4-0.3,0.6v1c0,0.2,0.1,0.4,0.3,0.6
			c0.2,0.2,0.5,0.3,0.7,0.3h2.9L187.7,73.8z"/>
		<path fill="#D20F8C" d="M203.1,67.9v-4.1c0-0.2,0.1-0.4,0.3-0.6c0.2-0.2,0.4-0.3,0.7-0.3c0.3,0,0.5,0.1,0.7,0.3
			c0.2,0.2,0.3,0.4,0.3,0.6v11.9c0,0.2-0.1,0.4-0.3,0.6c-0.2,0.2-0.4,0.3-0.7,0.3c-0.3,0-0.5-0.1-0.7-0.3c-0.2-0.2-0.3-0.4-0.3-0.6
			v-0.4c-1,0.8-2,1.2-2.8,1.2h-1.8c-0.7,0-1.4-0.3-2.1-0.8l-0.9-0.6c-0.2-0.2-0.4-0.4-0.6-0.8c-0.2-0.4-0.3-0.7-0.3-1v-3.5
			c0-0.4,0.1-0.8,0.3-1.1c0.2-0.4,0.4-0.6,0.7-0.8l0.9-0.6c0.6-0.4,1.3-0.7,2.2-0.7h1.5c0.8,0,1.6,0.2,2.2,0.7L203.1,67.9z
			 M200.1,68.5h-1.4c-0.3,0-0.6,0.1-0.8,0.3l-0.7,0.5c-0.2,0.2-0.3,0.4-0.3,0.7v3.7c0,0.2,0.1,0.5,0.4,0.6l0.7,0.5
			c0.2,0.2,0.4,0.2,0.7,0.2h1.7c0.2,0,0.5-0.1,0.8-0.3l1.6-1.1c0.3-0.2,0.4-0.4,0.4-0.7v-1.9c0-0.4-0.1-0.7-0.4-0.9l-1.7-1.2
			C200.7,68.6,200.4,68.5,200.1,68.5z"/>
		<path fill="#D20F8C" d="M220.5,70v2.1c0,0.2-0.1,0.4-0.3,0.6c-0.2,0.2-0.5,0.3-0.7,0.3h-7.4v0.5c0,0.3,0.2,0.5,0.5,0.7l0.6,0.4
			c0.3,0.2,0.6,0.3,0.9,0.3h5.3c0.3,0,0.5,0.1,0.7,0.3c0.2,0.2,0.3,0.4,0.3,0.6c0,0.2-0.1,0.4-0.3,0.6c-0.2,0.2-0.5,0.3-0.7,0.3H214
			c-0.4,0-0.7-0.1-1.1-0.2c-0.4-0.1-0.7-0.3-0.9-0.4l-0.9-0.7c-0.3-0.2-0.5-0.5-0.7-0.8c-0.2-0.3-0.3-0.7-0.3-0.9v-3.9
			c0-0.2,0.1-0.5,0.3-0.9c0.2-0.4,0.5-0.7,0.8-0.9l0.9-0.6c0.6-0.4,1.2-0.6,1.9-0.6h2.9c0.7,0,1.4,0.3,2.1,0.8l0.8,0.6
			C220.2,68.5,220.5,69.2,220.5,70z M212.1,69.9v1.3h6.3V70c0-0.3-0.1-0.6-0.4-0.7l-0.6-0.4c-0.3-0.2-0.6-0.3-0.8-0.3H214
			c-0.3,0-0.6,0.1-0.9,0.3l-0.6,0.4C212.3,69.4,212.1,69.6,212.1,69.9z"/>
		<path fill="#D20F8C" d="M248,76.6h-2.1c-0.9,0-1.6-0.3-2.2-0.8c-0.6-0.5-0.9-1.1-0.9-1.8v-5.6h-1.1c-0.3,0-0.5-0.1-0.7-0.2
			s-0.3-0.4-0.3-0.6c0-0.2,0.1-0.4,0.3-0.6c0.2-0.2,0.4-0.3,0.7-0.3h1.1v-2.1c0-0.2,0.1-0.4,0.3-0.6c0.2-0.2,0.4-0.3,0.7-0.3
			c0.3,0,0.5,0.1,0.7,0.3c0.2,0.2,0.3,0.4,0.3,0.6v2.1h4.2c0.3,0,0.5,0.1,0.7,0.3s0.3,0.4,0.3,0.6c0,0.2-0.1,0.4-0.3,0.6
			c-0.2,0.2-0.5,0.3-0.7,0.3h-4.2v5.6c0,0.2,0.1,0.4,0.3,0.6c0.2,0.2,0.5,0.3,0.7,0.3h2c0.6,0,0.9-0.2,1.1-0.7
			c0.2-0.5,0.5-0.7,1.1-0.7c0.3,0,0.6,0.1,0.7,0.3c0.2,0.2,0.3,0.4,0.3,0.6c0,0.5-0.3,1-0.9,1.6C249.6,76.4,248.9,76.6,248,76.6z"/>
		<path fill="#D20F8C" d="M266.4,70v2.1c0,0.2-0.1,0.4-0.3,0.6c-0.2,0.2-0.5,0.3-0.7,0.3H258v0.5c0,0.3,0.2,0.5,0.5,0.7l0.6,0.4
			c0.3,0.2,0.6,0.3,0.9,0.3h5.3c0.3,0,0.5,0.1,0.7,0.3c0.2,0.2,0.3,0.4,0.3,0.6c0,0.2-0.1,0.4-0.3,0.6c-0.2,0.2-0.5,0.3-0.7,0.3
			h-5.5c-0.4,0-0.7-0.1-1.1-0.2c-0.4-0.1-0.7-0.3-0.9-0.4l-0.9-0.7c-0.3-0.2-0.5-0.5-0.7-0.8c-0.2-0.3-0.3-0.7-0.3-0.9v-3.9
			c0-0.2,0.1-0.5,0.3-0.9c0.2-0.4,0.5-0.7,0.8-0.9l0.9-0.6c0.6-0.4,1.2-0.6,1.9-0.6h2.9c0.7,0,1.4,0.3,2.1,0.8l0.8,0.6
			C266.2,68.5,266.4,69.2,266.4,70z M258.1,69.9v1.3h6.3V70c0-0.3-0.1-0.6-0.4-0.7l-0.6-0.4c-0.3-0.2-0.6-0.3-0.8-0.3H260
			c-0.3,0-0.6,0.1-0.9,0.3l-0.6,0.4C258.2,69.4,258.1,69.6,258.1,69.9z"/>
		<path fill="#D20F8C" d="M280.7,76.6h-4.4c-0.8,0-1.5-0.2-2-0.6l-2-1.5c-0.6-0.4-1-1-1-1.8v-2.2c0-0.7,0.3-1.4,1.1-1.9l1.8-1.3
			c0.6-0.4,1.2-0.6,1.9-0.6h4.7c0.3,0,0.5,0.1,0.7,0.3c0.2,0.2,0.3,0.4,0.3,0.6c0,0.2-0.1,0.5-0.3,0.6s-0.4,0.2-0.7,0.2h-4.5
			c-0.3,0-0.5,0.1-0.8,0.3l-1.7,1.2c-0.3,0.2-0.4,0.4-0.4,0.8v2.1c0,0.2,0.1,0.4,0.3,0.6l1.8,1.3c0.2,0.2,0.5,0.3,0.9,0.3h4.3
			c0.3,0,0.5,0.1,0.7,0.3c0.2,0.2,0.3,0.4,0.3,0.6s-0.1,0.4-0.3,0.6C281.3,76.6,281,76.6,280.7,76.6z"/>
		<path fill="#D20F8C" d="M286.6,75.8V63.9c0-0.2,0.1-0.4,0.3-0.6s0.4-0.2,0.7-0.2c0.3,0,0.5,0.1,0.7,0.3c0.2,0.2,0.3,0.4,0.3,0.6
			v4.3l1.7-0.9c0.8-0.4,1.4-0.6,2-0.6h1.3c0.8,0,1.6,0.3,2.2,0.8c0.6,0.5,0.9,1.1,1,1.8l0.3,6.4c0,0.2-0.1,0.4-0.3,0.6
			c-0.2,0.2-0.5,0.3-0.7,0.3c-0.3,0-0.5-0.1-0.7-0.3c-0.2-0.2-0.3-0.4-0.3-0.6l-0.3-6.5c0-0.2-0.1-0.4-0.3-0.6
			c-0.2-0.2-0.5-0.3-0.7-0.3h-1.2c-0.3,0-0.6,0.1-0.9,0.3l-3,1.6v5.5c0,0.2-0.1,0.4-0.3,0.6c-0.2,0.2-0.4,0.3-0.7,0.3
			c-0.3,0-0.5-0.1-0.7-0.3C286.7,76.2,286.6,76,286.6,75.8z"/>
		<path fill="#D20F8C" d="M320.1,66.8h4.8c0.7,0,1.4,0.2,2,0.5c0.6,0.4,0.9,0.7,0.9,1.1c0,0.2-0.1,0.4-0.3,0.6
			c-0.2,0.2-0.4,0.2-0.7,0.2c-0.3,0-0.6-0.1-0.9-0.4s-0.6-0.4-0.9-0.4h-4.7c-0.5,0-0.7,0.2-0.7,0.5c0,0.2,0.2,0.4,0.5,0.5l5.5,2
			c0.6,0.2,1,0.5,1.4,1c0.4,0.5,0.5,1,0.5,1.5c0,0.7-0.3,1.4-0.9,1.9c-0.6,0.5-1.3,0.8-2.1,0.8h-4.2c-0.7,0-1.4-0.2-2-0.5
			s-0.9-0.7-0.9-1.1c0-0.2,0.1-0.4,0.3-0.6c0.2-0.2,0.5-0.3,0.8-0.3c0.3,0,0.5,0.1,0.8,0.4c0.3,0.2,0.7,0.4,1.3,0.4h3.9
			c0.3,0,0.6-0.1,0.8-0.3c0.2-0.2,0.3-0.4,0.3-0.7c0-0.4-0.2-0.7-0.7-0.8l-5.6-2.1c-0.5-0.2-0.9-0.5-1.2-0.9
			c-0.3-0.4-0.4-0.8-0.4-1.1c0-0.6,0.3-1.1,0.8-1.6S319.3,66.8,320.1,66.8z"/>
		<path fill="#D20F8C" d="M339.8,76.6h-2.1c-0.9,0-1.6-0.3-2.2-0.8c-0.6-0.5-0.9-1.1-0.9-1.8v-5.6h-1.1c-0.3,0-0.5-0.1-0.7-0.2
			s-0.3-0.4-0.3-0.6c0-0.2,0.1-0.4,0.3-0.6c0.2-0.2,0.4-0.3,0.7-0.3h1.1v-2.1c0-0.2,0.1-0.4,0.3-0.6c0.2-0.2,0.4-0.3,0.7-0.3
			c0.3,0,0.5,0.1,0.7,0.3c0.2,0.2,0.3,0.4,0.3,0.6v2.1h4.2c0.3,0,0.5,0.1,0.7,0.3s0.3,0.4,0.3,0.6c0,0.2-0.1,0.4-0.3,0.6
			c-0.2,0.2-0.5,0.3-0.7,0.3h-4.2v5.6c0,0.2,0.1,0.4,0.3,0.6c0.2,0.2,0.5,0.3,0.7,0.3h2c0.6,0,0.9-0.2,1.1-0.7
			c0.2-0.5,0.5-0.7,1.1-0.7c0.3,0,0.6,0.1,0.7,0.3c0.2,0.2,0.3,0.4,0.3,0.6c0,0.5-0.3,1-0.9,1.6C341.5,76.4,340.7,76.6,339.8,76.6z"
			/>
		<path fill="#D20F8C" d="M352.8,74.9l3.5-1.8v-5.4c0-0.2,0.1-0.4,0.3-0.6c0.2-0.2,0.4-0.3,0.7-0.3c0.3,0,0.5,0.1,0.7,0.3
			c0.2,0.2,0.3,0.4,0.3,0.6v8.2c0,0.2-0.1,0.4-0.3,0.6c-0.2,0.2-0.5,0.3-0.7,0.3s-0.5-0.1-0.7-0.3s-0.3-0.4-0.3-0.6v-0.7l-1.8,1
			c-0.7,0.4-1.4,0.6-2.2,0.6h-1c-0.8,0-1.6-0.2-2.2-0.7c-0.6-0.5-0.9-1.1-1-1.8l-0.3-6.5c0-0.2,0.1-0.4,0.3-0.6
			c0.2-0.2,0.5-0.3,0.7-0.3c0.3,0,0.5,0.1,0.7,0.3s0.3,0.4,0.3,0.6l0.3,6.4c0,0.6,0.4,0.9,1.3,0.9H352.8z"/>
		<path fill="#D20F8C" d="M367.9,68.5v7.3c0,0.2-0.1,0.4-0.3,0.6c-0.2,0.2-0.4,0.3-0.7,0.3c-0.3,0-0.5-0.1-0.8-0.3
			c-0.2-0.2-0.3-0.4-0.3-0.6v-7.3h-1.1c-0.3,0-0.5-0.1-0.7-0.3s-0.3-0.4-0.3-0.6c0-0.2,0.1-0.4,0.3-0.6c0.2-0.2,0.4-0.3,0.8-0.3h1.1
			v-0.7c0-0.9,0.4-1.6,1.1-2.2c0.7-0.6,1.6-0.9,2.7-0.9h2.4c0.3,0,0.5,0.1,0.7,0.3c0.2,0.2,0.3,0.4,0.3,0.6c0,0.2-0.1,0.4-0.3,0.6
			s-0.4,0.3-0.7,0.3h-2.4c-0.5,0-0.9,0.1-1.2,0.4s-0.5,0.6-0.5,1v0.7h2.1c0.3,0,0.5,0.1,0.7,0.2s0.3,0.4,0.3,0.6
			c0,0.2-0.1,0.4-0.3,0.6s-0.4,0.3-0.7,0.3H367.9z"/>
		<path fill="#D20F8C" d="M383.2,68.5v7.3c0,0.2-0.1,0.4-0.3,0.6c-0.2,0.2-0.4,0.3-0.7,0.3c-0.3,0-0.5-0.1-0.8-0.3
			c-0.2-0.2-0.3-0.4-0.3-0.6v-7.3H380c-0.3,0-0.5-0.1-0.7-0.3s-0.3-0.4-0.3-0.6c0-0.2,0.1-0.4,0.3-0.6c0.2-0.2,0.4-0.3,0.8-0.3h1.1
			v-0.7c0-0.9,0.4-1.6,1.1-2.2c0.7-0.6,1.6-0.9,2.7-0.9h2.4c0.3,0,0.5,0.1,0.7,0.3c0.2,0.2,0.3,0.4,0.3,0.6c0,0.2-0.1,0.4-0.3,0.6
			s-0.4,0.3-0.7,0.3h-2.4c-0.5,0-0.9,0.1-1.2,0.4s-0.5,0.6-0.5,1v0.7h2.1c0.3,0,0.5,0.1,0.7,0.2s0.3,0.4,0.3,0.6
			c0,0.2-0.1,0.4-0.3,0.6s-0.4,0.3-0.7,0.3H383.2z"/>
	</g>
</g>
<g id="info">
</g>
<g id="Logo">
</g>
</svg>
