<svg id="Calque_1" data-name="Calque 1" xmlns="http://www.w3.org/2000/svg" viewBox="0 0 529.12 75.77">
    <defs>
        <style>.cls-1,.cls-10,.cls-11,.cls-12,.cls-13,.cls-14,.cls-9{fill:#83c0d4;}.cls-2,.cls-3,.cls-4,.cls-5,.cls-6,.cls-7,.cls-8{fill:#c6d13e;}.cls-2,.cls-9{opacity:0.6;}.cls-10,.cls-3{opacity:0.7;}.cls-11,.cls-4{opacity:0.5;}.cls-12,.cls-5{opacity:0.4;}.cls-13,.cls-6{opacity:0.8;}.cls-14,.cls-7{opacity:0.9;}</style>
    </defs>
    <title>logo_sophia</title>
    <path class="cls-1" d="M103.65,189.41L76.27,173.84a6.48,6.48,0,0,0-6.38,0L42.51,189.41A6.46,6.46,0,0,0,39.24,195V227.5a6.45,6.45,0,0,0,3.38,5.67L70,248a6.44,6.44,0,0,0,6.14,0l27.39-14.82a6.44,6.44,0,0,0,3.38-5.67V195A6.46,6.46,0,0,0,103.65,189.41Zm0.15,38.09a3.33,3.33,0,0,1-1.75,2.93L74.67,245.25a3.32,3.32,0,0,1-3.17,0L44.11,230.43a3.33,3.33,0,0,1-1.75-2.93V195a3.34,3.34,0,0,1,1.69-2.9l27.39-15.57a3.35,3.35,0,0,1,3.29,0l27.39,15.57a3.34,3.34,0,0,1,1.69,2.9V227.5Z" transform="translate(-39.24 -173)"/>
    <path class="cls-2" d="M73.86,202.23a3.11,3.11,0,1,0,.14.92A3.11,3.11,0,0,0,73.86,202.23Z" transform="translate(-39.24 -173)"/>
    <path class="cls-3" d="M68,206.26l-0.24-.2a3.3,3.3,0,0,0-5.26,2.66h0a3.31,3.31,0,0,0,6.61,0h0A3.29,3.29,0,0,0,68,206.26Z" transform="translate(-39.24 -173)"/>
    <circle class="cls-4" cx="44.51" cy="27" r="2.92"/>
    <path class="cls-5" d="M90.42,197.28h0a2.72,2.72,0,0,0,0,5.44h0A2.72,2.72,0,0,0,90.42,197.28Z" transform="translate(-39.24 -173)"/>
    <path class="cls-6" d="M65,219.88h0a3.5,3.5,0,1,0-3.51-3.51v0A3.5,3.5,0,0,0,65,219.88Z" transform="translate(-39.24 -173)"/>
    <path class="cls-7" d="M70,222.81a3.69,3.69,0,1,0,.33,1.52A3.7,3.7,0,0,0,70,222.81Z" transform="translate(-39.24 -173)"/>
    <circle class="cls-8" cx="29.29" cy="59.79" r="3.89"/>
    <path class="cls-9" d="M74.6,217.46a3.05,3.05,0,0,0-.36-0.3,3.11,3.11,0,1,0-1.82,5.65h0A3.11,3.11,0,0,0,74.6,217.46Z" transform="translate(-39.24 -173)"/>
    <path class="cls-10" d="M77.56,210.85a3.3,3.3,0,0,0-2.25,5.74l0.24,0.2A3.3,3.3,0,1,0,77.56,210.85Z" transform="translate(-39.24 -173)"/>
    <circle class="cls-11" cx="59.57" cy="222.77" r="2.92" transform="translate(-202.78 108.06) rotate(-89.67)"/>
    <circle class="cls-12" cx="53.07" cy="222.42" r="2.72" transform="translate(-208.9 101.21) rotate(-89.67)"/>
    <path class="cls-13" d="M74.89,206.48A3.5,3.5,0,1,0,78.41,203h0A3.5,3.5,0,0,0,74.89,206.48Z" transform="translate(-39.24 -173)"/>
    <path class="cls-14" d="M76.82,194.84h0a3.69,3.69,0,0,0,0,7.39h0A3.69,3.69,0,0,0,76.82,194.84Z" transform="translate(-39.24 -173)"/>
    <circle class="cls-1" cx="74.89" cy="189.63" r="3.89" transform="translate(-154.42 90.4) rotate(-89.67)"/>
    <path class="cls-1" d="M133.23,209.34l-2.64-1.22c-3.71-1.71-5.27-3-5.27-6s2-4.74,5.27-4.74a6.75,6.75,0,0,1,6.15,3.61l2.83-1.76a9.79,9.79,0,0,0-9-5c-5,0-8.74,3.17-8.74,8s2.59,6.93,7.32,9.08l2.64,1.22c4.15,1.85,6.25,3.56,6.25,6.93s-3,5.66-6.88,5.66c-4.69,0-7-2.39-8.54-5.17l-2.93,1.56c1.76,3.51,5.22,6.74,11.57,6.74,6,0,10.3-3.32,10.3-8.79C141.58,214.51,138.75,211.78,133.23,209.34Z" transform="translate(-39.24 -173)"/>
    <path class="cls-1" d="M166.33,194.3a17,17,0,1,0,0,34c9.47,0,17.09-7,17.09-17S175.8,194.3,166.33,194.3Zm0,30.8c-7.71,0-13.38-5.91-13.38-13.82s5.66-13.82,13.38-13.82,13.42,5.91,13.42,13.82S174.09,225.11,166.33,225.11Z" transform="translate(-39.24 -173)"/>
    <path class="cls-1" d="M200.55,194.69H193v33.2h3.51v-8.25h4c9.08,0,13.72-5.13,13.72-12.45S209.63,194.69,200.55,194.69Zm-0.2,21.87h-3.81V197.82h3.81c7.47,0,10.25,3.91,10.25,9.37S207.82,216.56,200.35,216.56Z" transform="translate(-39.24 -173)"/>
    <polygon class="cls-1" points="206.02 40.39 188.25 40.39 188.25 21.69 184.73 21.69 184.73 54.89 188.25 54.89 188.25 43.61 206.02 43.61 206.02 54.89 209.53 54.89 209.53 21.69 206.02 21.69 206.02 40.39"/>
    <rect class="cls-1" x="221.2" y="21.69" width="3.56" height="33.2"/>
    <path class="cls-1" d="M286.71,194.35l-13.77,33.54h3.47l2.2-5.57H295.4l2.25,5.57h3.71l-14.06-33.54h-0.59Zm7.42,24.95h-14.3l5.86-14.74c0.63-1.56,1.32-4,1.32-4a41.36,41.36,0,0,0,1.27,4Z" transform="translate(-39.24 -173)"/>
    <path class="cls-8" d="M333,215.18h10.77V223c-2.21,2.07-5.71,3.94-11.41,3.94a15.3,15.3,0,0,1,0-30.6c4.23,0,7.67,1.23,10.08,3.74l1.33-1.38c-2.71-2.85-6.89-4.18-11.41-4.18-9.54,0-17.27,6.94-17.27,17.12s7.67,17.12,17.22,17.12c6.39,0,10.68-2.21,13.38-5V213.41H333v1.77Z" transform="translate(-39.24 -173)"/>
    <polygon class="cls-8" points="319.25 43.31 334.94 43.31 334.94 41.54 319.25 41.54 319.25 23.63 336.76 23.63 336.76 21.86 317.23 21.86 317.23 55.31 337.45 55.31 337.45 53.54 319.25 53.54 319.25 43.31"/>
    <path class="cls-8" d="M410.49,221.92c0,1,.15,2.51.15,2.51s-0.88-1.38-1.52-2.21l-21.4-27.75h-0.59v33.84H389V201.26c0-1-.15-2.51-0.15-2.51s0.89,1.38,1.53,2.21l21.4,27.75h0.59V194.86h-1.87v27.06Z" transform="translate(-39.24 -173)"/>
    <polygon class="cls-8" points="387.73 43.31 403.42 43.31 403.42 41.54 387.73 41.54 387.73 23.63 405.24 23.63 405.24 21.86 385.71 21.86 385.71 55.31 405.93 55.31 405.93 53.54 387.73 53.54 387.73 43.31"/>
    <polygon class="cls-8" points="412.92 23.63 423.54 23.63 423.54 55.31 425.56 55.31 425.56 23.63 436.18 23.63 436.18 21.86 412.92 21.86 412.92 23.63"/>
    <rect class="cls-8" x="445.53" y="21.86" width="2.02" height="33.45"/>
    <path class="cls-8" d="M514.44,226.89c-8.61,0-15.05-6.54-15.05-15.3s6.44-15.3,15.05-15.3c5.31,0,9.3,2.16,11.76,5.66l1.53-1.13c-2.8-4.08-7.43-6.35-13.28-6.35-9.44,0-17.12,6.94-17.12,17.12s7.67,17.12,17.12,17.12c5.8,0,10.72-2.41,13.68-6.69l-1.52-1.08A14.38,14.38,0,0,1,514.44,226.89Z" transform="translate(-39.24 -173)"/>
    <path class="cls-8" d="M548.58,210.21l-3.1-1.43c-4.13-1.92-5.8-3.54-5.8-6.89s2.31-5.66,6.25-5.66a7.63,7.63,0,0,1,7,4.08l1.57-1a9.51,9.51,0,0,0-8.56-4.82c-4.53,0-8.22,2.85-8.22,7.48,0,4.23,2.31,6.44,7,8.61l3.1,1.43c4.67,2.16,6.84,4.28,6.84,8.17,0,4.23-3.59,6.79-8,6.79-5.36,0-7.87-2.8-9.44-5.75l-1.72.84c1.62,3.34,4.87,6.69,11.22,6.69,5.76,0,9.89-3.35,9.89-8.56C556.6,215.52,554,212.67,548.58,210.21Z" transform="translate(-39.24 -173)"/>
    <path class="cls-8" d="M559.86,198.64a4.25,4.25,0,0,1,8.5,0A4.25,4.25,0,0,1,559.86,198.64Zm7.49,0a3.08,3.08,0,0,0-3.27-3.29A3.25,3.25,0,1,0,567.35,198.67Zm-1.32,2h-1.3l-0.52-1h-0.48v1h-1.26v-4.15h1.78a1.61,1.61,0,0,1,1.76,1.53,1.54,1.54,0,0,1-.69,1.34Zm-1.74-2a0.47,0.47,0,0,0,.48-0.54,0.48,0.48,0,0,0-.48-0.5h-0.55v1h0.55Z" transform="translate(-39.24 -173)"/>
</svg>